<?xml version="1.0" encoding="UTF-8" standalone="no"?>
<!DOCTYPE svg PUBLIC "-//W3C//DTD SVG 1.1//EN" "http://www.w3.org/Graphics/SVG/1.1/DTD/svg11.dtd">
<svg width="100%" height="100%" viewBox="0 0 320 70" version="1.1" xmlns="http://www.w3.org/2000/svg" xmlns:xlink="http://www.w3.org/1999/xlink" xml:space="preserve" xmlns:serif="http://www.serif.com/" style="fill-rule:evenodd;clip-rule:evenodd;stroke-linejoin:round;stroke-miterlimit:2;">
    <g transform="matrix(2.85808,0,0,3.65346,-41.2002,-39.6633)">
        <g id="Logo">
            <path d="M18.281,20.975L18.281,19.991L23.97,17.589L23.97,18.638L19.458,20.489L23.97,22.358L23.97,23.407L18.281,20.975Z" style="fill:rgb(189,189,189);fill-rule:nonzero;"/>
            <path d="M28.177,21.555L27.333,22.481L27.333,24.731L25.277,24.731L25.277,16.2L27.333,16.2L27.333,19.962L28.048,18.878L29.888,16.2L32.431,16.2L29.548,19.973L32.431,24.731L29.994,24.731L28.177,21.555Z" style="fill:rgb(62,114,220);fill-rule:nonzero;"/>
            <path d="M37.798,23.138L34.98,23.138L34.488,24.731L32.29,24.731L35.419,16.2L37.353,16.2L40.505,24.731L38.296,24.731L37.798,23.138ZM35.472,21.55L37.306,21.55L36.386,18.591L35.472,21.55Z" style="fill:rgb(62,114,220);fill-rule:nonzero;"/>
            <rect x="41.267" y="16.2" width="2.051" height="8.531" style="fill:rgb(62,114,220);fill-rule:nonzero;"/>
            <path d="M51.65,21.843C51.622,22.436 51.462,22.961 51.169,23.416C50.876,23.871 50.465,24.223 49.936,24.473C49.407,24.723 48.802,24.848 48.122,24.848C47.001,24.848 46.119,24.483 45.474,23.753C44.829,23.022 44.507,21.991 44.507,20.659L44.507,20.237C44.507,19.401 44.653,18.67 44.944,18.043C45.235,17.416 45.654,16.931 46.201,16.59C46.747,16.248 47.38,16.077 48.099,16.077C49.134,16.077 49.966,16.349 50.595,16.894C51.224,17.439 51.581,18.19 51.667,19.147L49.617,19.147C49.601,18.628 49.47,18.255 49.224,18.028C48.978,17.802 48.603,17.688 48.099,17.688C47.587,17.688 47.212,17.88 46.974,18.263C46.736,18.645 46.611,19.257 46.599,20.096L46.599,20.7C46.599,21.61 46.713,22.261 46.942,22.651C47.17,23.042 47.564,23.237 48.122,23.237C48.595,23.237 48.956,23.126 49.206,22.903C49.456,22.68 49.589,22.327 49.605,21.843L51.65,21.843Z" style="fill:rgb(153,209,120);fill-rule:nonzero;"/>
            <path d="M59.847,20.641C59.847,21.473 59.693,22.21 59.384,22.85C59.076,23.491 58.637,23.984 58.069,24.33C57.5,24.676 56.853,24.848 56.126,24.848C55.4,24.848 54.755,24.681 54.193,24.347C53.63,24.013 53.192,23.536 52.877,22.915C52.563,22.294 52.398,21.581 52.382,20.776L52.382,20.296C52.382,19.46 52.536,18.722 52.842,18.084C53.149,17.445 53.588,16.952 54.161,16.604C54.733,16.257 55.384,16.083 56.115,16.083C56.837,16.083 57.482,16.255 58.048,16.598C58.615,16.942 59.055,17.431 59.37,18.066C59.684,18.701 59.843,19.429 59.847,20.249L59.847,20.641ZM57.755,20.284C57.755,19.436 57.614,18.793 57.33,18.353C57.047,17.914 56.642,17.694 56.115,17.694C55.083,17.694 54.538,18.468 54.48,20.014L54.474,20.641C54.474,21.477 54.613,22.12 54.89,22.569C55.167,23.018 55.579,23.243 56.126,23.243C56.646,23.243 57.046,23.022 57.328,22.581C57.609,22.139 57.751,21.505 57.755,20.677L57.755,20.284Z" style="fill:rgb(153,209,120);fill-rule:nonzero;"/>
            <path d="M60.908,24.731L60.908,16.2L63.656,16.2C64.41,16.2 65.087,16.371 65.689,16.713C66.29,17.054 66.76,17.537 67.098,18.16C67.436,18.783 67.607,19.481 67.611,20.255L67.611,20.647C67.611,21.429 67.446,22.129 67.116,22.748C66.786,23.367 66.321,23.851 65.721,24.201C65.121,24.551 64.453,24.727 63.714,24.731L60.908,24.731ZM62.964,17.788L62.964,23.149L63.679,23.149C64.269,23.149 64.722,22.939 65.038,22.519C65.355,22.099 65.513,21.475 65.513,20.647L65.513,20.278C65.513,19.454 65.355,18.833 65.038,18.415C64.722,17.997 64.261,17.788 63.656,17.788L62.964,17.788Z" style="fill:rgb(153,209,120);fill-rule:nonzero;"/>
            <path d="M73.956,21.11L70.722,21.11L70.722,23.149L74.542,23.149L74.542,24.731L68.665,24.731L68.665,16.2L74.554,16.2L74.554,17.788L70.722,17.788L70.722,19.587L73.956,19.587L73.956,21.11Z" style="fill:rgb(153,209,120);fill-rule:nonzero;"/>
            <path d="M79.781,22.464C79.781,22.163 79.674,21.929 79.461,21.761C79.248,21.593 78.874,21.419 78.339,21.239C77.804,21.059 77.367,20.886 77.027,20.718C75.921,20.175 75.369,19.429 75.369,18.479C75.369,18.007 75.506,17.59 75.782,17.228C76.057,16.867 76.447,16.586 76.951,16.385C77.454,16.183 78.021,16.083 78.65,16.083C79.263,16.083 79.813,16.192 80.299,16.411C80.786,16.63 81.163,16.941 81.433,17.346C81.703,17.75 81.837,18.212 81.837,18.731L79.787,18.731C79.787,18.384 79.68,18.114 79.467,17.923C79.254,17.731 78.966,17.636 78.603,17.636C78.236,17.636 77.946,17.717 77.733,17.879C77.52,18.041 77.413,18.247 77.413,18.497C77.413,18.716 77.531,18.914 77.765,19.092C77.999,19.269 78.412,19.453 79.001,19.642C79.591,19.832 80.076,20.036 80.454,20.255C81.376,20.786 81.837,21.518 81.837,22.452C81.837,23.198 81.556,23.784 80.994,24.21C80.431,24.636 79.66,24.848 78.679,24.848C77.988,24.848 77.362,24.724 76.801,24.476C76.241,24.228 75.819,23.888 75.536,23.457C75.252,23.025 75.111,22.528 75.111,21.966L77.173,21.966C77.173,22.423 77.291,22.76 77.528,22.976C77.764,23.193 78.148,23.302 78.679,23.302C79.019,23.302 79.288,23.228 79.485,23.082C79.682,22.935 79.781,22.729 79.781,22.464Z" style="fill:rgb(153,209,120);fill-rule:nonzero;"/>
            <path d="M89.589,17.788L87.029,17.788L87.029,24.731L84.972,24.731L84.972,17.788L82.458,17.788L82.458,16.2L89.589,16.2L89.589,17.788Z" style="fill:rgb(231,181,105);fill-rule:nonzero;"/>
            <path d="M95.747,21.11L92.513,21.11L92.513,23.149L96.333,23.149L96.333,24.731L90.456,24.731L90.456,16.2L96.345,16.2L96.345,17.788L92.513,17.788L92.513,19.587L95.747,19.587L95.747,21.11Z" style="fill:rgb(231,181,105);fill-rule:nonzero;"/>
            <path d="M104.074,21.843C104.046,22.436 103.886,22.961 103.593,23.416C103.3,23.871 102.889,24.223 102.36,24.473C101.83,24.723 101.226,24.848 100.546,24.848C99.425,24.848 98.542,24.483 97.898,23.753C97.253,23.022 96.931,21.991 96.931,20.659L96.931,20.237C96.931,19.401 97.077,18.67 97.368,18.043C97.659,17.416 98.078,16.931 98.624,16.59C99.171,16.248 99.804,16.077 100.523,16.077C101.558,16.077 102.39,16.349 103.019,16.894C103.648,17.439 104.005,18.19 104.091,19.147L102.04,19.147C102.025,18.628 101.894,18.255 101.648,18.028C101.402,17.802 101.027,17.688 100.523,17.688C100.011,17.688 99.636,17.88 99.398,18.263C99.16,18.645 99.035,19.257 99.023,20.096L99.023,20.7C99.023,21.61 99.137,22.261 99.366,22.651C99.594,23.042 99.988,23.237 100.546,23.237C101.019,23.237 101.38,23.126 101.63,22.903C101.88,22.68 102.013,22.327 102.029,21.843L104.074,21.843Z" style="fill:rgb(231,181,105);fill-rule:nonzero;"/>
            <path d="M112.177,24.731L110.132,24.731L110.132,21.169L107.103,21.169L107.103,24.731L105.046,24.731L105.046,16.2L107.103,16.2L107.103,19.587L110.132,19.587L110.132,16.2L112.177,16.2L112.177,24.731Z" style="fill:rgb(231,181,105);fill-rule:nonzero;"/>
            <path d="M112.833,24.878L115.324,15.995L116.167,15.995L113.683,24.878L112.833,24.878Z" style="fill:rgb(189,189,189);fill-rule:nonzero;"/>
            <path d="M122.513,20.975L116.824,23.407L116.824,22.358L121.329,20.489L116.824,18.638L116.824,17.589L122.513,19.991L122.513,20.975Z" style="fill:rgb(189,189,189);fill-rule:nonzero;"/>
        </g>
    </g>
</svg>
